<svg width="512" height="512" viewBox="0 0 512 512" fill="none" xmlns="http://www.w3.org/2000/svg">
<g clip-path="url(#clip0_317_50)">
<path d="M435.2 0H76.8C34.3845 0 0 34.3845 0 76.8V435.2C0 477.615 34.3845 512 76.8 512H435.2C477.615 512 512 477.615 512 435.2V76.8C512 34.3845 477.615 0 435.2 0Z" fill="#45D354"/>
<path d="M435.2 0H76.8C34.3845 0 0 34.3845 0 76.8V435.2C0 477.615 34.3845 512 76.8 512H435.2C477.615 512 512 477.615 512 435.2V76.8C512 34.3845 477.615 0 435.2 0Z" fill="#45D354"/>
<path d="M435.2 0H76.8C34.3845 0 0 34.3845 0 76.8V435.2C0 477.615 34.3845 512 76.8 512H435.2C477.615 512 512 477.615 512 435.2V76.8C512 34.3845 477.615 0 435.2 0Z" fill="#45D354"/>
<path d="M308 273C305 271 302 270 299 274L287 290C284 292 282 293 278 291C263 283 242 274 224 244C223 240 225 238 227 236L236 222C238 220 237 218 236 216L224 187C221 179 218 180 215 180H207C205 180 201 181 197 185C175 207 184 238 200 258C203 262 223 298 266 317C298 331 305 329 314 327C325 326 336 317 341 308C342 305 347 292 343 290M264 384C223 384 192 362 192 362L143 375L155 327C155 327 135 296 135 257C135 185 194 125 267 125C335 125 393 178 393 252C393 324 335 383 264 384ZM105 413L188 390C212.038 402.306 238.829 408.246 265.816 407.252C292.803 406.258 319.085 398.364 342.153 384.323C365.221 370.281 384.305 350.562 397.583 327.047C410.861 303.531 417.89 277.005 418 250C418 164 350 95 264 95C236.397 95.0706 209.295 102.371 185.391 116.175C161.488 129.979 141.617 149.804 127.759 173.676C113.901 197.548 106.539 224.634 106.406 252.237C106.273 279.839 113.373 306.995 127 331" fill="white"/>
</g>
<defs>
<clipPath id="clip0_317_50">
<rect width="512" height="512" fill="white"/>
</clipPath>
</defs>
</svg>
