<svg width="192" height="192" viewBox="0 0 192 192" fill="none" xmlns="http://www.w3.org/2000/svg">
<path d="M124.524 107.472C122.684 106.264 120.843 105.66 119.003 108.075L111.642 117.736C109.802 118.943 108.575 119.547 106.121 118.34C96.9201 113.509 84.0383 108.075 72.9968 89.9623C72.3834 87.5472 73.6102 86.3396 74.8371 85.1321L80.3578 76.6792C81.5847 75.4717 80.9712 74.2642 80.3578 73.0566L72.9968 55.5472C71.1565 50.717 69.3163 51.3208 67.476 51.3208H62.5687C61.3419 51.3208 58.8882 51.9245 56.4345 54.3396C42.9393 67.6226 48.4601 86.3396 58.2748 98.4151C60.115 100.83 72.3834 122.566 98.7604 134.038C118.39 142.491 122.684 141.283 128.204 140.075C134.952 139.472 141.7 134.038 144.767 128.604C145.38 126.792 148.447 118.943 145.994 117.736M97.5335 174.491C72.3834 174.491 53.3674 161.208 53.3674 161.208L23.3099 169.057L30.6709 140.075C30.6709 140.075 18.4026 121.358 18.4026 97.8113C18.4026 54.3396 54.5942 18.1132 99.3738 18.1132C141.086 18.1132 176.665 50.1132 176.665 94.7925C176.665 138.264 141.086 173.887 97.5335 174.491ZM0 192L50.9137 178.113C65.6592 185.543 82.0935 189.13 98.6478 188.53C115.202 187.93 131.324 183.163 145.474 174.685C159.624 166.208 171.331 154.302 179.476 140.104C187.621 125.906 191.933 109.89 192 93.5849C192 41.6604 150.288 0 97.5335 0C80.6015 0.0426372 63.9762 4.45062 49.3133 12.785C34.6505 21.1193 22.4618 33.0892 13.9611 47.5025C5.46034 61.9159 0.944239 78.2697 0.862503 94.9354C0.780767 111.601 5.13625 127.997 13.4952 142.491" fill="#189D0E"/>
</svg>
