<svg width="192" height="192" viewBox="0 0 192 192" fill="none" xmlns="http://www.w3.org/2000/svg">
<g clip-path="url(#clip0_317_58)">
<path d="M163.2 0H28.8C12.8942 0 0 12.8942 0 28.8V163.2C0 179.106 12.8942 192 28.8 192H163.2C179.106 192 192 179.106 192 163.2V28.8C192 12.8942 179.106 0 163.2 0Z" fill="#45D354"/>
<path d="M163.2 0H28.8C12.8942 0 0 12.8942 0 28.8V163.2C0 179.106 12.8942 192 28.8 192H163.2C179.106 192 192 179.106 192 163.2V28.8C192 12.8942 179.106 0 163.2 0Z" fill="#45D354"/>
<path d="M163.2 0H28.8C12.8942 0 0 12.8942 0 28.8V163.2C0 179.106 12.8942 192 28.8 192H163.2C179.106 192 192 179.106 192 163.2V28.8C192 12.8942 179.106 0 163.2 0Z" fill="#45D354"/>
<path d="M115.5 102.375C114.375 101.625 113.25 101.25 112.125 102.75L107.625 108.75C106.5 109.5 105.75 109.875 104.25 109.125C98.625 106.125 90.75 102.75 84 91.5C83.625 90 84.375 89.25 85.125 88.5L88.5 83.25C89.25 82.5 88.875 81.75 88.5 81L84 70.125C82.875 67.125 81.75 67.5 80.625 67.5H77.625C76.875 67.5 75.375 67.875 73.875 69.375C65.625 77.625 69 89.25 75 96.75C76.125 98.25 83.625 111.75 99.75 118.875C111.75 124.125 114.375 123.375 117.75 122.625C121.875 122.25 126 118.875 127.875 115.5C128.25 114.375 130.125 109.5 128.625 108.75M99 144C83.625 144 72 135.75 72 135.75L53.625 140.625L58.125 122.625C58.125 122.625 50.625 111 50.625 96.375C50.625 69.375 72.75 46.875 100.125 46.875C125.625 46.875 147.375 66.75 147.375 94.5C147.375 121.5 125.625 143.625 99 144ZM39.375 154.875L70.5 146.25C79.5143 150.865 89.5611 153.092 99.6812 152.72C109.801 152.347 119.657 149.386 128.307 144.121C136.958 138.856 144.114 131.461 149.094 122.642C154.073 113.824 156.709 103.877 156.75 93.75C156.75 61.5 131.25 35.625 99 35.625C88.6489 35.6515 78.4854 38.3892 69.5216 43.5657C60.5578 48.7421 53.1065 56.1765 47.9098 65.1285C42.7131 74.0806 39.9522 84.2378 39.9023 94.5888C39.8523 104.94 42.5149 115.123 47.625 124.125" fill="white"/>
</g>
<defs>
<clipPath id="clip0_317_58">
<rect width="192" height="192" fill="white"/>
</clipPath>
</defs>
</svg>
