<svg width="512" height="512" viewBox="0 0 512 512" fill="none" xmlns="http://www.w3.org/2000/svg">
<g clip-path="url(#clip0_317_50)">
<path d="M332.064 286.591C327.157 283.371 322.249 281.761 317.342 288.201L297.712 313.962C292.805 317.182 289.534 318.792 282.99 315.572C258.454 302.692 224.102 288.201 194.658 239.899C193.022 233.459 196.294 230.239 199.565 227.019L214.288 204.478C217.559 201.258 215.923 198.038 214.288 194.818L194.658 148.126C189.751 135.245 184.843 136.855 179.936 136.855H166.85C163.578 136.855 157.035 138.465 150.492 144.906C114.505 180.327 129.227 230.239 155.399 262.44C160.307 268.88 193.022 326.843 263.361 357.434C315.706 379.975 327.157 376.755 341.879 373.535C359.872 371.925 377.866 357.434 386.045 342.943C387.681 338.113 395.859 317.182 389.316 313.962M260.089 465.308C193.022 465.308 142.313 429.887 142.313 429.887L62.1597 450.818L81.7891 373.535C81.7891 373.535 49.0735 323.623 49.0735 260.83C49.0735 144.906 145.585 48.3019 264.997 48.3019C376.23 48.3019 471.105 133.635 471.105 252.78C471.105 368.704 376.23 463.698 260.089 465.308ZM0 512L135.77 474.969C175.091 494.783 218.916 504.346 263.061 502.746C307.205 501.145 350.197 488.435 387.931 465.828C425.665 443.22 456.882 411.471 478.602 373.61C500.322 335.748 511.821 293.039 512 249.56C512 111.094 400.767 0 260.089 0C214.937 0.113699 170.603 11.8683 131.502 34.0932C92.4013 56.3181 59.8981 88.2378 37.2295 126.673C14.5609 165.109 2.51797 208.719 2.30001 253.161C2.08204 297.603 13.6967 341.326 35.9872 379.975" fill="#189D0E"/>
</g>
<defs>
<clipPath id="clip0_317_50">
<rect width="512" height="512" fill="white"/>
</clipPath>
</defs>
</svg>
